HIERARCHY
ROOT Hips
{
	OFFSET 0.000000 0.000000 0.000000
	CHANNELS 6 Xposition Yposition Zposition Xrotation Yrotation Zrotation
	JOINT LeftUpLeg_virtual
	{
		OFFSET 0.000000 0.000000 0.000000
		CHANNELS 3 Xrotation Yrotation Zrotation
		JOINT LeftUpLeg
		{
			OFFSET 11.394100 -6.187798 -0.413800
			CHANNELS 3 Xrotation Yrotation Zrotation
			JOINT LeftLeg
			{
				OFFSET 0.430247 -32.302673 3.732800
				CHANNELS 3 Xrotation Yrotation Zrotation
				JOINT LeftFoot
				{
					OFFSET -0.430247 -48.264931 -6.423300
					CHANNELS 3 Xrotation Yrotation Zrotation
					JOINT LeftToeBase
					{
						OFFSET 4.230900 -16.068199 23.438400
						CHANNELS 3 Xrotation Yrotation Zrotation
						JOINT LeftToe_End
						{
							OFFSET 4.510700 0.695400 19.974600
							CHANNELS 3 Xrotation Yrotation Zrotation
							End Site
							{
								OFFSET 0 0 0
							}
						}
					}
				}
			}
		}
	}
	JOINT RightUpLeg_virtual
	{
		OFFSET 0.000000 0.000000 0.000000
		CHANNELS 3 Xrotation Yrotation Zrotation
		JOINT RightUpLeg
		{
			OFFSET -11.333700 -6.187798 -0.413800
			CHANNELS 3 Xrotation Yrotation Zrotation
			JOINT RightLeg
			{
				OFFSET -0.430392 -32.302628 3.733000
				CHANNELS 3 Xrotation Yrotation Zrotation
				JOINT RightFoot
				{
					OFFSET 0.430392 -48.264973 -6.423500
					CHANNELS 3 Xrotation Yrotation Zrotation
					JOINT RightToeBase
					{
						OFFSET -4.230900 -16.068199 23.438400
						CHANNELS 3 Xrotation Yrotation Zrotation
						JOINT RightToe_End
						{
							OFFSET -4.510700 0.695400 19.974600
							CHANNELS 3 Xrotation Yrotation Zrotation
							End Site
							{
								OFFSET 0 0 0
							}
						}
					}
				}
			}
		}
	}
	JOINT Spine_virtual
	{
		OFFSET 0.000000 0.000000 0.000000
		CHANNELS 3 Xrotation Yrotation Zrotation
		JOINT Spine
		{
			OFFSET -0.002400 12.777504 0.315300
			CHANNELS 3 Xrotation Yrotation Zrotation
			JOINT Spine1
			{
				OFFSET -0.002067 5.816869 0.032633
				CHANNELS 3 Xrotation Yrotation Zrotation
				JOINT Spine1_split
				{
					OFFSET -0.002067 5.816869 0.032633
					CHANNELS 3 Xrotation Yrotation Zrotation
					JOINT Spine2
					{
						OFFSET -0.002067 5.816869 0.032633
						CHANNELS 3 Xrotation Yrotation Zrotation
						JOINT Neck_virtual
						{
							OFFSET 0.000000 0.000000 0.000000
							CHANNELS 3 Xrotation Yrotation Zrotation
							JOINT Neck
							{
								OFFSET -0.003700 21.199493 -0.826900
								CHANNELS 3 Xrotation Yrotation Zrotation
								JOINT Head
								{
									OFFSET 0.000000 20.442200 4.834800
									CHANNELS 3 Xrotation Yrotation Zrotation
									JOINT HeadTop_End
									{
										OFFSET 0.000000 34.668396 4.968400
										CHANNELS 3 Xrotation Yrotation Zrotation
										End Site
										{
											OFFSET 0 0 0
										}
									}
								}
							}
						}
						JOINT LeftShoulder_virtual
						{
							OFFSET 0.000000 0.000000 0.000000
							CHANNELS 3 Xrotation Yrotation Zrotation
							JOINT LeftShoulder
							{
								OFFSET 3.288150 8.794197 -1.372250
								CHANNELS 3 Xrotation Yrotation Zrotation
								JOINT LeftShoulder_split
								{
									OFFSET 3.288150 8.794197 -1.372250
									CHANNELS 3 Xrotation Yrotation Zrotation
									JOINT LeftArm
									{
										OFFSET 11.953299 -2.279007 -0.146200
										CHANNELS 3 Xrotation Yrotation Zrotation
										JOINT LeftForeArm
										{
											OFFSET 18.448900 0.000000 0.000000
											CHANNELS 3 Xrotation Yrotation Zrotation
											JOINT LeftHand
											{
												OFFSET 29.527798 0.000000 0.000000
												CHANNELS 3 Xrotation Yrotation Zrotation
												End Site
												{
													OFFSET 0 0 0
												}
											}
										}
									}
								}
							}
						}
						JOINT RightShoulder_virtual
						{
							OFFSET 0.000000 0.000000 0.000000
							CHANNELS 3 Xrotation Yrotation Zrotation
							JOINT RightShoulder
							{
								OFFSET -3.249400 8.794197 -1.372250
								CHANNELS 3 Xrotation Yrotation Zrotation
								JOINT RightShoulder_split
								{
									OFFSET -3.249400 8.794197 -1.372250
									CHANNELS 3 Xrotation Yrotation Zrotation
									JOINT RightArm
									{
										OFFSET -11.953299 -2.279007 -0.146200
										CHANNELS 3 Xrotation Yrotation Zrotation
										JOINT RightForeArm
										{
											OFFSET -18.448900 0.000000 0.000000
											CHANNELS 3 Xrotation Yrotation Zrotation
											JOINT RightHand
											{
												OFFSET -29.527802 0.000000 0.000000
												CHANNELS 3 Xrotation Yrotation Zrotation
												End Site
												{
													OFFSET 0 0 0
												}
											}
										}
									}
								}
							}
						}
					}
				}
			}
		}
	}
}
MOTION
Frames: 4
Frame Time: 0.03333333
0.828363 198.496780 -18.094013 0.000000 0.000000 0.000000 1.904565 -6.128415 1.037831 -92.696452 9.220584 23.903668 91.578036 0.831162 4.879729 0.744916 2.872353 -18.605907 0.639738 -2.761741 13.893282 0.000000 0.000000 0.000000 5.256497 -11.690494 0.502725 -113.892721 16.713867 -7.797910 110.510883 -5.840425 2.320861 23.971923 -7.883637 28.489604 -1.299330 12.102409 15.098461 0.000000 0.000000 0.000000 7.236598 -14.381416 0.168610 5.874910 -2.833396 0.083349 10.650504 -1.304724 -0.599647 1.305794 -1.800770 2.569348 0.000000 0.000000 0.000000 13.556288 -1.369287 -0.414237 -22.158136 0.475419 -1.796672 0.222879 -4.155937 1.565031 0.000000 0.000000 0.000000 13.077870 -1.310534 -0.798549 0.716277 -12.901058 27.867179 -0.171298 7.633535 -8.343114 -59.501862 -22.151249 -12.266422 29.027396 -70.349726 53.630352 0.000000 0.000000 0.000000 12.399058 -1.022865 -0.482602 2.978722 10.131105 -6.364500 8.161177 10.931540 0.821794 -75.148801 35.798435 22.865805 -13.433616 75.456542 -26.857181 0.000000 0.000000 0.000000 
1.491775 198.894562 -19.119785 0.000000 0.000000 0.000000 0.413306 -7.374071 1.069910 -96.195353 5.627208 21.626054 90.947821 -0.656667 2.391008 0.733182 5.531182 -18.152983 2.944958 -3.715224 13.290104 0.000000 0.000000 0.000000 3.855034 -11.636282 0.876127 -115.151402 12.442143 -9.701613 105.367341 -3.278466 -0.094368 24.978587 -5.356902 30.670961 -4.376232 9.276819 9.070536 0.000000 0.000000 0.000000 6.509234 -15.035616 -0.219367 6.633198 -2.666673 0.502482 13.776046 -0.942689 -0.631384 1.573420 -1.555787 2.620156 0.000000 0.000000 0.000000 16.465727 -0.841236 -0.604020 -23.522731 1.786788 -1.609524 2.782505 -4.842045 3.545718 0.000000 0.000000 0.000000 16.036046 -0.883993 -1.170833 2.275612 -15.736688 30.468992 -0.811242 4.572843 -7.638658 -59.417653 -17.988500 -9.711983 15.540823 -65.359911 45.545771 0.000000 0.000000 0.000000 15.373067 -0.427197 -0.648423 3.617899 10.848582 -8.207369 9.727922 11.181728 -0.605917 -83.511821 36.772150 26.425391 -31.853823 76.141842 -10.189292 0.000000 0.000000 0.000000 
1.889740 200.198761 -19.706493 0.000000 0.000000 0.000000 -0.516918 -7.589232 1.452153 -96.901082 3.233736 18.023404 83.710682 -2.101178 1.012506 1.392051 7.679851 -15.941730 4.457137 -4.517342 11.491924 0.000000 0.000000 0.000000 3.209868 -10.653050 1.579975 -113.340890 7.023498 -11.654432 95.383858 -1.254526 -2.149491 25.347976 -2.293711 29.653601 -6.726481 8.321247 4.066330 0.000000 0.000000 0.000000 5.987060 -15.014142 -0.386918 6.605876 -2.108256 0.927237 16.706641 -0.457799 -0.742104 1.718977 -2.006954 2.512045 0.000000 0.000000 0.000000 19.189763 -0.169911 -0.831809 -23.737061 3.063067 -1.745089 6.220263 -5.707473 5.516173 0.000000 0.000000 0.000000 18.845059 -0.416981 -1.468930 3.608149 -17.665745 32.070696 -1.954536 1.305216 -6.001334 -62.842078 -15.560783 -8.100567 6.205688 -59.259432 41.215885 0.000000 0.000000 0.000000 18.039788 0.261324 -0.746510 4.629979 12.315810 -10.536188 10.993861 11.414796 -1.804290 -89.627136 38.694640 27.133804 -39.726658 71.241926 -3.613289 0.000000 0.000000 0.000000 
1.997743 202.001678 -19.901508 0.000000 0.000000 0.000000 -1.226125 -6.427138 2.056511 -95.052355 2.423313 13.852977 70.941917 -3.642860 0.466333 2.237328 9.182032 -12.145935 4.324793 -5.193452 8.790780 0.000000 0.000000 0.000000 2.327283 -10.063381 2.309702 -109.581554 0.856715 -13.488576 80.705010 -0.333365 -3.101298 25.914815 -0.231893 24.923495 -7.813014 8.890165 1.572645 0.000000 0.000000 0.000000 5.401394 -14.557020 -0.291067 6.141790 -1.408075 1.303287 19.183638 0.027215 -0.874750 1.131465 -1.840215 1.897146 0.000000 0.000000 0.000000 21.389904 0.504490 -1.041687 -22.737619 4.348106 -2.287619 10.034759 -6.597198 7.151884 0.000000 0.000000 0.000000 21.227750 0.038235 -1.665726 4.474122 -18.374582 32.887279 -2.756148 -1.623333 -3.887762 -68.014354 -15.217491 -6.554419 -1.773354 -52.019960 37.739380 0.000000 0.000000 0.000000 20.139183 0.858456 -0.739177 6.155062 14.001450 -13.746802 11.370448 10.913322 -2.456371 -91.137789 41.236618 23.795812 -39.433711 62.727733 -4.851346 0.000000 0.000000 0.000000 
